<svg width="22" height="22" viewBox="0 0 24 24" fill="none"
  xmlns="http://www.w3.org/2000/svg" aria-label="Delivery and pickup">
  <path d="M3 7H15V17H3V7Z"
    stroke="#22465e" stroke-width="1.7" stroke-linejoin="round"/>
  <path d="M15 11H19L21 13V17H15V11Z"
    stroke="#22465e" stroke-width="1.7" stroke-linejoin="round"/>
  <path d="M7 17.5C7 18.3 6.3 19 5.5 19C4.7 19 4 18.3 4 17.5C4 16.7 4.7 16 5.5 16C6.3 16 7 16.7 7 17.5Z"
    stroke="#22465e" stroke-width="1.7"/>
  <path d="M20 17.5C20 18.3 19.3 19 18.5 19C17.7 19 17 18.3 17 17.5C17 16.7 17.7 16 18.5 16C19.3 16 20 16.7 20 17.5Z"
    stroke="#22465e" stroke-width="1.7"/>
</svg>
